<svg width="157" height="191" viewBox="0 0 157 191" fill="none" xmlns="http://www.w3.org/2000/svg">
<path d="M151.24 36.005C151.24 45.4627 118.01 53.1296 77.0182 53.1296C36.0265 53.1296 2.79625 45.4627 2.79625 36.005V41.1599V46.3147C2.79625 55.7724 36.0265 63.4393 77.0182 63.4393C118.01 63.4393 151.24 55.7724 151.24 46.3147V41.1599V36.005Z" fill="url(#paint0_linear_29_10)"/>
<path d="M151.24 46.3147C151.24 55.7724 118.01 63.4393 77.0182 63.4393C36.0265 63.4393 2.79625 55.7724 2.79625 46.3147V41.1599C2.79625 41.1599 0.00234883 42.6452 0.00200858 46.3147C0.00166834 49.9843 0.00200858 55.9255 0.00200858 55.9255C0.00200858 57.4835 0.979708 59.0167 2.79625 60.4909C12.0063 67.9653 42.7795 73.9238 77.0182 73.9238C111.257 73.9238 142.03 67.9653 151.24 60.4909C153.057 59.0167 154.034 57.4835 154.034 55.9255V46.3147C154.034 44.0246 151.24 41.1599 151.24 41.1599V46.3147Z" fill="url(#paint1_linear_29_10)"/>
<path d="M151.238 109.746C151.238 119.203 118.008 126.87 77.0164 126.87C36.0247 126.87 2.79439 119.203 2.79439 109.746V104.591C2.79439 104.591 0.000491468 106.076 0.000151221 109.746C-0.000189026 113.415 0.000151221 119.356 0.000151221 119.356C0.000151221 120.914 0.977851 122.448 2.79439 123.922C12.0044 131.396 42.7778 137.355 77.0164 137.355C111.255 137.355 142.028 131.396 151.238 123.922C153.055 122.448 154.033 120.914 154.033 119.356V109.746C154.033 107.455 151.238 104.591 151.238 104.591V109.746Z" fill="url(#paint2_linear_29_10)"/>
<path d="M77.0182 73.9238C42.7795 73.9238 12.0063 67.9653 2.79625 60.4909L2.79439 104.591V109.746C2.79439 119.203 36.0247 126.87 77.0164 126.87C118.008 126.87 151.238 119.203 151.238 109.746V104.591L151.239 90.8737L151.24 69.0338V69.0311L151.24 60.4909C142.03 67.9653 111.257 73.9238 77.0182 73.9238Z" fill="url(#paint3_linear_29_10)"/>
<path d="M77.0164 186.806C53.654 186.806 32.8127 184.316 19.2073 180.423C32.2426 186.371 54.3164 191 77.0164 191C99.7163 191 122.083 186.343 134.825 180.423C121.22 184.316 100.379 186.806 77.0164 186.806Z" fill="#69143A"/>
<path d="M17.1116 43.3441L42.6091 39.8493C38.176 37.6215 36.4967 31.8112 36.846 28.4912C37.039 26.6559 37.8191 23.6992 39.3633 21.2447C40.6125 19.259 42.3617 17.6019 44.7048 17.133C49.9439 16.0846 109.147 9.79392 113.338 10.3181C117.53 10.8424 121.455 15.7735 121.197 20.4531C121.203 21.0871 121.19 21.6796 121.156 22.2361C120.873 26.8971 118.262 30.0795 114.211 32.8598L138.836 28.4912C138.214 27.2549 138.308 27.2896 137.719 26.1481C129.632 10.4708 124.446 3.63055 116.307 2.97903C107.575 2.28006 54.6592 8.04641 44.1808 10.3181C38.2267 11.609 33.1924 16.0524 28.311 23.0832C24.6018 28.4256 20.9809 35.2619 17.1116 43.3441Z" fill="#C1C1C1"/>
<path d="M44.1808 10.3181C54.6592 8.04641 107.575 2.28006 116.307 2.97903C124.446 3.63055 129.632 10.4708 137.719 26.1481C130.008 10.0797 122.42 -0.340954 113.338 0.00852729C104.257 0.358009 46.1816 5.1973 37.3699 7.52238C31.4879 9.07441 25.9095 15.7126 20.1499 24.9999C17.281 29.6259 14.3672 34.9091 11.3485 40.5484L17.1116 43.3441C20.9809 35.2619 24.6018 28.4256 28.311 23.0832C33.1924 16.0524 38.2267 11.609 44.1808 10.3181Z" fill="url(#paint4_linear_29_10)"/>
<path d="M113.338 10.3181C109.147 9.79392 49.9439 16.0846 44.7048 17.133C42.3617 17.6019 40.6125 19.259 39.3633 21.2447C37.8191 23.6992 37.039 26.6559 36.846 28.4912C38.3679 24.755 40.5433 22.2096 42.8582 20.7979C43.639 20.3217 44.4358 19.9746 45.2287 19.7542C48.3722 18.8806 107.051 12.4151 113.338 12.4151C116.243 14.0145 116.513 17.6785 115.232 21.3215C113.852 25.2454 110.674 29.1448 107.051 30.4134L114.211 32.8598C118.262 30.0795 120.873 26.8971 121.156 22.2361C121.19 21.6796 121.203 21.0871 121.197 20.4531C121.455 15.7735 117.53 10.8424 113.338 10.3181Z" fill="url(#paint5_linear_29_10)"/>
<path d="M77.0182 53.1296C118.01 53.1296 151.24 45.4627 151.24 36.005C151.24 32.8859 147.626 29.9615 141.311 27.4427C140.196 26.9982 138.997 26.5662 137.719 26.1481C138.308 27.2896 138.214 27.2549 138.836 28.4912L114.211 32.8598L107.051 30.4134C110.674 29.1448 113.852 25.2454 115.232 21.3215C104.069 19.7718 90.9949 18.8804 77.0182 18.8804C64.7003 18.8804 53.0833 19.5727 42.8582 20.7979C40.5433 22.2096 38.3679 24.755 36.846 28.4912C36.4967 31.8112 38.176 37.6215 42.6091 39.8493L17.1116 43.3441L11.3485 40.5484C14.3672 34.9091 17.281 29.6259 20.1499 24.9999C9.31911 27.9761 2.79625 31.8148 2.79625 36.005C2.79625 45.4627 36.0265 53.1296 77.0182 53.1296Z" fill="#C7C8C9"/>
<path d="M77.0164 137.355C42.7778 137.355 12.0044 131.396 2.79439 123.922V169.682C2.79439 173.749 8.94069 177.485 19.2073 180.423C32.8127 184.316 53.654 186.806 77.0164 186.806C100.379 186.806 121.22 184.316 134.825 180.423C145.092 177.485 151.238 173.749 151.238 169.682L151.238 132.462V123.922C142.028 131.396 111.255 137.355 77.0164 137.355Z" fill="url(#paint6_linear_29_10)"/>
<path d="M151.238 104.591C151.238 104.591 154.033 107.455 154.033 109.746V119.356C154.033 120.914 153.055 122.448 151.238 123.922V132.462C151.238 132.462 154.553 134.384 154.903 134.559C155.252 134.734 155.776 134.384 155.776 134.035V123.026C155.776 122.676 156.998 122.502 156.998 121.628V94.1938C156.998 93.4948 151.239 90.8737 151.239 90.8737L151.238 104.591Z" fill="#C1C1C1"/>
<path d="M151.24 36.005V41.1599C151.24 41.1599 154.034 44.0246 154.034 46.3147V55.9255C154.034 57.4835 153.057 59.0167 151.24 60.4909L151.24 69.0311V69.0338C151.378 69.1139 154.563 70.957 154.904 71.1279C155.254 71.3026 155.778 70.9532 155.778 70.6037V59.595C155.778 59.2455 157 59.0708 157 58.1971V30.7628C157 30.0638 152.111 27.4427 151.241 27.4427H141.311C147.626 29.9615 151.24 32.8859 151.24 36.005Z" fill="#C1C1C1"/>
<defs>
<linearGradient id="paint0_linear_29_10" x1="2.66972" y1="44.2635" x2="154.289" y2="49.0155" gradientUnits="userSpaceOnUse">
<stop stop-color="#E4ECF1"/>
<stop offset="1" stop-color="#C1C1C1"/>
</linearGradient>
<linearGradient id="paint1_linear_29_10" x1="2.66972" y1="44.2635" x2="154.289" y2="49.0155" gradientUnits="userSpaceOnUse">
<stop stop-color="#E4ECF1"/>
<stop offset="1" stop-color="#C1C1C1"/>
</linearGradient>
<linearGradient id="paint2_linear_29_10" x1="2.66972" y1="44.2635" x2="154.289" y2="49.0155" gradientUnits="userSpaceOnUse">
<stop stop-color="#E4ECF1"/>
<stop offset="1" stop-color="#C1C1C1"/>
</linearGradient>
<linearGradient id="paint3_linear_29_10" x1="194" y1="143" x2="68" y2="95" gradientUnits="userSpaceOnUse">
<stop stop-color="#BD035B"/>
<stop offset="1" stop-color="#B05278"/>
</linearGradient>
<linearGradient id="paint4_linear_29_10" x1="2.66972" y1="44.2635" x2="154.289" y2="49.0155" gradientUnits="userSpaceOnUse">
<stop stop-color="#E4ECF1"/>
<stop offset="1" stop-color="#C1C1C1"/>
</linearGradient>
<linearGradient id="paint5_linear_29_10" x1="2.66972" y1="44.2635" x2="154.289" y2="49.0155" gradientUnits="userSpaceOnUse">
<stop stop-color="#E4ECF1"/>
<stop offset="1" stop-color="#C1C1C1"/>
</linearGradient>
<linearGradient id="paint6_linear_29_10" x1="95" y1="100" x2="162" y2="131" gradientUnits="userSpaceOnUse">
<stop stop-color="#B15279"/>
<stop offset="1" stop-color="#B82668"/>
</linearGradient>
</defs>
</svg>
