<svg width="159" height="193" viewBox="0 0 159 193" fill="none" xmlns="http://www.w3.org/2000/svg">
<path d="M152.24 37.005C152.24 46.4627 119.01 54.1296 78.0182 54.1296C37.0265 54.1296 3.79625 46.4627 3.79625 37.005V42.1599V47.3147C3.79625 56.7724 37.0265 64.4393 78.0182 64.4393C119.01 64.4393 152.24 56.7724 152.24 47.3147V42.1599V37.005Z" fill="url(#paint0_linear_29_23)"/>
<path d="M152.24 47.3147C152.24 56.7724 119.01 64.4393 78.0182 64.4393C37.0265 64.4393 3.79625 56.7724 3.79625 47.3147V42.1599C3.79625 42.1599 1.00235 43.6452 1.00201 47.3147C1.00167 50.9843 1.00201 56.9255 1.00201 56.9255C1.00201 58.4835 1.97971 60.0167 3.79625 61.4909C13.0063 68.9653 43.7795 74.9238 78.0182 74.9238C112.257 74.9238 143.03 68.9653 152.24 61.4909C154.057 60.0167 155.034 58.4835 155.034 56.9255V47.3147C155.034 45.0246 152.24 42.1599 152.24 42.1599V47.3147Z" fill="url(#paint1_linear_29_23)"/>
<path d="M152.238 110.746C152.238 120.203 119.008 127.87 78.0164 127.87C37.0247 127.87 3.79439 120.203 3.79439 110.746V105.591C3.79439 105.591 1.00049 107.076 1.00015 110.746C0.999811 114.415 1.00015 120.356 1.00015 120.356C1.00015 121.914 1.97785 123.448 3.79439 124.922C13.0044 132.396 43.7778 138.355 78.0164 138.355C112.255 138.355 143.028 132.396 152.238 124.922C154.055 123.448 155.033 121.914 155.033 120.356V110.746C155.033 108.455 152.238 105.591 152.238 105.591V110.746Z" fill="url(#paint2_linear_29_23)"/>
<path d="M78.0182 74.9238C43.7795 74.9238 13.0063 68.9653 3.79625 61.4909L3.79439 105.591V110.746C3.79439 120.203 37.0247 127.87 78.0164 127.87C119.008 127.87 152.238 120.203 152.238 110.746V105.591L152.239 91.8737L152.24 70.0338V70.0311L152.24 61.4909C143.03 68.9653 112.257 74.9238 78.0182 74.9238Z" fill="url(#paint3_linear_29_23)"/>
<path d="M78.0164 187.806C54.654 187.806 33.8127 185.316 20.2073 181.423C33.2426 187.371 55.3164 192 78.0164 192C100.716 192 123.083 187.343 135.825 181.423C122.22 185.316 101.379 187.806 78.0164 187.806Z" fill="#69143A"/>
<path d="M18.1116 44.3441L43.6091 40.8493C39.176 38.6215 37.4967 32.8112 37.846 29.4912C38.039 27.6559 38.8191 24.6992 40.3633 22.2447C41.6125 20.259 43.3617 18.6019 45.7048 18.133C50.9439 17.0846 110.147 10.7939 114.338 11.3181C118.53 11.8424 122.455 16.7735 122.197 21.4531C122.203 22.0871 122.19 22.6796 122.156 23.2361C121.873 27.8971 119.262 31.0795 115.211 33.8598L139.836 29.4912C139.214 28.2549 139.308 28.2896 138.719 27.1481C130.632 11.4708 125.446 4.63055 117.307 3.97903C108.575 3.28006 55.6592 9.04641 45.1808 11.3181C39.2267 12.609 34.1924 17.0524 29.311 24.0832C25.6018 29.4256 21.9809 36.2619 18.1116 44.3441Z" fill="#C1C1C1"/>
<path d="M45.1808 11.3181C55.6592 9.04641 108.575 3.28006 117.307 3.97903C125.446 4.63055 130.632 11.4708 138.719 27.1481C131.008 11.0797 123.42 0.659046 114.338 1.00853C105.257 1.35801 47.1816 6.1973 38.3699 8.52238C32.4879 10.0744 26.9095 16.7126 21.1499 25.9999C18.281 30.6259 15.3672 35.9091 12.3485 41.5484L18.1116 44.3441C21.9809 36.2619 25.6018 29.4256 29.311 24.0832C34.1924 17.0524 39.2267 12.609 45.1808 11.3181Z" fill="url(#paint4_linear_29_23)"/>
<path d="M114.338 11.3181C110.147 10.7939 50.9439 17.0846 45.7048 18.133C43.3617 18.6019 41.6125 20.259 40.3633 22.2447C38.8191 24.6992 38.039 27.6559 37.846 29.4912C39.3679 25.755 41.5433 23.2096 43.8582 21.7979C44.639 21.3217 45.4358 20.9746 46.2287 20.7542C49.3722 19.8806 108.051 13.4151 114.338 13.4151C117.243 15.0145 117.513 18.6785 116.232 22.3215C114.852 26.2454 111.674 30.1448 108.051 31.4134L115.211 33.8598C119.262 31.0795 121.873 27.8971 122.156 23.2361C122.19 22.6796 122.203 22.0871 122.197 21.4531C122.455 16.7735 118.53 11.8424 114.338 11.3181Z" fill="url(#paint5_linear_29_23)"/>
<path d="M78.0182 54.1296C119.01 54.1296 152.24 46.4627 152.24 37.005C152.24 33.8859 148.626 30.9615 142.311 28.4427C141.196 27.9982 139.997 27.5662 138.719 27.1481C139.308 28.2896 139.214 28.2549 139.836 29.4912L115.211 33.8598L108.051 31.4134C111.674 30.1448 114.852 26.2454 116.232 22.3215C105.069 20.7718 91.9949 19.8804 78.0182 19.8804C65.7003 19.8804 54.0833 20.5727 43.8582 21.7979C41.5433 23.2096 39.3679 25.755 37.846 29.4912C37.4967 32.8112 39.176 38.6215 43.6091 40.8493L18.1116 44.3441L12.3485 41.5484C15.3672 35.9091 18.281 30.6259 21.1499 25.9999C10.3191 28.9761 3.79625 32.8148 3.79625 37.005C3.79625 46.4627 37.0265 54.1296 78.0182 54.1296Z" fill="white"/>
<path d="M78.0164 138.355C43.7778 138.355 13.0044 132.396 3.79439 124.922V170.682C3.79439 174.749 9.94069 178.485 20.2073 181.423C33.8127 185.316 54.654 187.806 78.0164 187.806C101.379 187.806 122.22 185.316 135.825 181.423C146.092 178.485 152.238 174.749 152.238 170.682L152.238 133.462V124.922C143.028 132.396 112.255 138.355 78.0164 138.355Z" fill="url(#paint6_linear_29_23)"/>
<path d="M152.238 105.591C152.238 105.591 155.033 108.455 155.033 110.746V120.356C155.033 121.914 154.055 123.448 152.238 124.922V133.462C152.238 133.462 155.553 135.384 155.903 135.559C156.252 135.734 156.776 135.384 156.776 135.035V124.026C156.776 123.676 157.998 123.502 157.998 122.628V95.1938C157.998 94.4948 152.239 91.8737 152.239 91.8737L152.238 105.591Z" fill="#C1C1C1"/>
<path d="M152.24 37.005V42.1599C152.24 42.1599 155.034 45.0246 155.034 47.3147V56.9255C155.034 58.4835 154.057 60.0167 152.24 61.4909L152.24 70.0311V70.0338C152.378 70.1139 155.563 71.957 155.904 72.1279C156.254 72.3026 156.778 71.9532 156.778 71.6037V60.595C156.778 60.2455 158 60.0708 158 59.1971V31.7628C158 31.0638 153.111 28.4427 152.241 28.4427H142.311C148.626 30.9615 152.24 33.8859 152.24 37.005Z" fill="#C1C1C1"/>
<path d="M152.24 37.005C152.24 46.4627 119.01 54.1296 78.0182 54.1296C37.0265 54.1296 3.79625 46.4627 3.79625 37.005M152.24 37.005V42.1599M152.24 37.005C152.24 33.8859 148.626 30.9615 142.311 28.4427M3.79625 37.005V42.1599M3.79625 37.005C3.79625 32.8148 10.3191 28.9761 21.1499 25.9999M155.034 56.9255C155.034 56.9255 155.034 50.8095 155.034 47.3147M155.034 56.9255V47.3147M155.034 56.9255C155.034 58.4835 154.057 60.0167 152.24 61.4909M152.24 42.1599V47.3147C152.24 56.7724 119.01 64.4393 78.0182 64.4393C37.0265 64.4393 3.79625 56.7724 3.79625 47.3147V42.1599M152.24 42.1599C152.24 42.1599 155.034 45.0246 155.034 47.3147M3.79625 42.1599C3.79625 42.1599 1.00235 43.6452 1.00201 47.3147C1.00167 50.9843 1.00201 56.9255 1.00201 56.9255C1.00201 58.4835 1.97971 60.0167 3.79625 61.4909M3.79625 61.4909C13.0063 68.9653 43.7795 74.9238 78.0182 74.9238C112.257 74.9238 143.03 68.9653 152.24 61.4909M3.79625 61.4909L3.79439 105.591M152.24 61.4909L152.24 70.0311V70.0338M155.033 120.356C155.033 120.356 155.033 114.24 155.033 110.746M155.033 120.356V110.746M155.033 120.356C155.033 121.914 154.055 123.448 152.238 124.922M152.238 105.591V110.746C152.238 120.203 119.008 127.87 78.0164 127.87C37.0247 127.87 3.79439 120.203 3.79439 110.746V105.591M152.238 105.591C152.238 105.591 155.033 108.455 155.033 110.746M152.238 105.591L152.239 91.8737M3.79439 105.591C3.79439 105.591 1.00049 107.076 1.00015 110.746C0.999811 114.415 1.00015 120.356 1.00015 120.356C1.00015 121.914 1.97785 123.448 3.79439 124.922M3.79439 124.922C13.0044 132.396 43.7778 138.355 78.0164 138.355C112.255 138.355 143.028 132.396 152.238 124.922M3.79439 124.922V170.682C3.79439 174.749 9.94069 178.485 20.2073 181.423M152.238 124.922V133.462M20.2073 181.423C33.8127 185.316 54.654 187.806 78.0164 187.806C101.379 187.806 122.22 185.316 135.825 181.423M20.2073 181.423C33.2426 187.371 55.3164 192 78.0164 192C100.716 192 123.083 187.343 135.825 181.423M135.825 181.423C146.092 178.485 152.238 174.749 152.238 170.682L152.238 133.462M18.1116 44.3441L43.6091 40.8493C39.176 38.6215 37.4967 32.8112 37.846 29.4912M18.1116 44.3441C21.9809 36.2619 25.6018 29.4256 29.311 24.0832C34.1924 17.0524 39.2267 12.609 45.1808 11.3181C55.6592 9.04641 108.575 3.28006 117.307 3.97903C125.446 4.63055 130.632 11.4708 138.719 27.1481M18.1116 44.3441L12.3485 41.5484C15.3672 35.9091 18.281 30.6259 21.1499 25.9999M37.846 29.4912C38.039 27.6559 38.8191 24.6992 40.3633 22.2447C41.6125 20.259 43.3617 18.6019 45.7048 18.133C50.9439 17.0846 110.147 10.7939 114.338 11.3181C118.53 11.8424 122.455 16.7735 122.197 21.4531C122.203 22.0871 122.19 22.6796 122.156 23.2361C121.873 27.8971 119.262 31.0795 115.211 33.8598M37.846 29.4912C39.3679 25.755 41.5433 23.2096 43.8582 21.7979M115.211 33.8598L139.836 29.4912C139.214 28.2549 139.308 28.2896 138.719 27.1481M115.211 33.8598L108.051 31.4134C111.674 30.1448 114.852 26.2454 116.232 22.3215M138.719 27.1481C131.008 11.0797 123.42 0.659046 114.338 1.00853C105.257 1.35801 47.1816 6.1973 38.3699 8.52238C32.4879 10.0744 26.9095 16.7126 21.1499 25.9999M138.719 27.1481C139.997 27.5662 141.196 27.9982 142.311 28.4427M43.8582 21.7979C44.639 21.3217 45.4358 20.9746 46.2287 20.7542C49.3722 19.8806 108.051 13.4151 114.338 13.4151C117.243 15.0145 117.513 18.6785 116.232 22.3215M43.8582 21.7979C54.0833 20.5727 65.7003 19.8804 78.0182 19.8804C91.9949 19.8804 105.069 20.7718 116.232 22.3215M152.238 133.462C152.238 133.462 155.553 135.384 155.903 135.559C156.252 135.734 156.776 135.384 156.776 135.035M156.776 135.035C156.776 134.685 156.776 124.375 156.776 124.026M156.776 135.035V124.026M156.776 124.026C156.776 123.676 157.998 123.502 157.998 122.628M157.998 122.628C157.998 121.754 157.998 95.8927 157.998 95.1938M157.998 122.628V95.1938M157.998 95.1938C157.998 94.4948 152.239 91.8737 152.239 91.8737M152.239 91.8737L152.24 70.0338M152.235 70.0311C152.235 70.0311 152.237 70.032 152.24 70.0338M156.778 71.6037C156.778 71.9532 156.254 72.3026 155.904 72.1279C155.563 71.957 152.378 70.1139 152.24 70.0338M156.778 71.6037C156.778 71.2542 156.778 60.9445 156.778 60.595M156.778 71.6037V60.595M156.778 60.595C156.778 60.2455 158 60.0708 158 59.1971M158 59.1971C158 58.3234 158 32.4618 158 31.7628M158 59.1971V31.7628M158 31.7628C158 31.0638 153.111 28.4427 152.241 28.4427M152.241 28.4427C151.37 28.4427 142.311 28.4427 142.311 28.4427M152.241 28.4427H142.311" stroke="#7C1644" stroke-width="2"/>
<defs>
<linearGradient id="paint0_linear_29_23" x1="3.66972" y1="45.2635" x2="155.289" y2="50.0155" gradientUnits="userSpaceOnUse">
<stop stop-color="#E4ECF1"/>
<stop offset="1" stop-color="#C1C1C1"/>
</linearGradient>
<linearGradient id="paint1_linear_29_23" x1="3.66972" y1="45.2635" x2="155.289" y2="50.0155" gradientUnits="userSpaceOnUse">
<stop stop-color="#E4ECF1"/>
<stop offset="1" stop-color="#C1C1C1"/>
</linearGradient>
<linearGradient id="paint2_linear_29_23" x1="3.66972" y1="45.2635" x2="155.289" y2="50.0155" gradientUnits="userSpaceOnUse">
<stop stop-color="#E4ECF1"/>
<stop offset="1" stop-color="#C1C1C1"/>
</linearGradient>
<linearGradient id="paint3_linear_29_23" x1="195" y1="144" x2="69" y2="96" gradientUnits="userSpaceOnUse">
<stop stop-color="#BD035B"/>
<stop offset="1" stop-color="#B05278"/>
</linearGradient>
<linearGradient id="paint4_linear_29_23" x1="3.66972" y1="45.2635" x2="155.289" y2="50.0155" gradientUnits="userSpaceOnUse">
<stop stop-color="#E4ECF1"/>
<stop offset="1" stop-color="#C1C1C1"/>
</linearGradient>
<linearGradient id="paint5_linear_29_23" x1="3.66972" y1="45.2635" x2="155.289" y2="50.0155" gradientUnits="userSpaceOnUse">
<stop stop-color="#E4ECF1"/>
<stop offset="1" stop-color="#C1C1C1"/>
</linearGradient>
<linearGradient id="paint6_linear_29_23" x1="96" y1="101" x2="163" y2="132" gradientUnits="userSpaceOnUse">
<stop stop-color="#B15279"/>
<stop offset="1" stop-color="#B82668"/>
</linearGradient>
</defs>
</svg>
